<svg version="1.2" xmlns="http://www.w3.org/2000/svg" viewBox="0 0 688 1100" width="688" height="1100">
	<title>hat-svg</title>
	<style>
		.s0 { fill: #ff6a9d } 
		.s1 { fill: #fffcc2 } 
		.s2 { fill: #c2f0ff } 
		.s3 { fill: #c7ffc2 } 
		.s4 { fill: #c2fdff } 
		.s5 { fill: #93ffac } 
	</style>
	<g id="layer1">
		<path id="path2985" class="s0" d="m0 1003.6l341.1-919.2 347.9 915.8c-229.7 118.8-459.3 145.4-689 3.4z"/>
		<path id="path3755" class="s1" d="m429.2 549.8c-2.6 2.5-61.1-31.9-64.7-31.3-3.5 0.5-48.6 51.4-51.8 49.7-3.2-1.6 11.4-68 9.8-71.2-1.6-3.2-63.9-30.3-63.3-33.9 0.5-3.5 68.1-10.1 70.7-12.7 2.5-2.5 9.1-70.2 12.7-70.7 3.5-0.6 30.7 61.7 33.9 63.3 3.2 1.7 69.5-13 71.1-9.8 1.7 3.2-49.2 48.3-49.7 51.9-0.6 3.5 33.8 62.1 31.3 64.7z"/>
		<path id="path3757" class="s2" d="m197.1 898.2c-1.9 0.9-27.6-30.1-29.7-30.5-2.1-0.4-37.5 18.9-38.9 17.4-1.5-1.6 20-35.6 19.7-37.8-0.2-2.1-29.5-29.7-28.5-31.6 1.1-1.9 40.1 8 42 7.1 1.9-0.9 19.2-37.3 21.3-36.9 2.1 0.4 4.7 40.6 6.2 42.2 1.4 1.5 41.3 6.7 41.6 8.8 0.3 2.1-37.1 17.1-38.1 18.9-1.1 1.9 6.4 41.5 4.4 42.4z"/>
		<path id="path3759" class="s1" d="m343.8 948.6c-3.3-0.5-9.7-63.3-12-65.7-2.4-2.3-65.2-8.2-65.8-11.5-0.5-3.3 57.2-28.8 58.7-31.7 1.5-3-12.3-64.6-9.4-66.1 3-1.6 45.1 45.5 48.4 46 3.2 0.5 57.5-31.7 59.9-29.4 2.3 2.4-29.4 56.9-28.8 60.2 0.5 3.3 47.9 45 46.4 48-1.5 3-63.2-10.4-66.1-8.8-3 1.5-28 59.5-31.3 59z"/>
		<path id="path3761" class="s3" d="m251.7 703.7c-0.7 1.2-25.5-7.7-26.8-7.3-1.4 0.5-14.9 23.1-16.2 22.7-1.4-0.4-0.6-26.7-1.4-27.8-0.9-1.1-26.5-7-26.6-8.4 0-1.4 25.3-8.8 26.1-9.9 0.7-1.2-1.6-27.4-0.3-27.9 1.3-0.5 16.2 21.3 17.5 21.7 1.3 0.4 25.6-9.9 26.4-8.8 0.9 1.1-15.3 21.9-15.2 23.3 0 1.4 17.3 21.3 16.5 22.4z"/>
		<path id="path3763" class="s4" d="m551.3 711.3c0.1 2.1-38.1 14.7-39.2 16.5-1.2 1.8 3.9 41.8 1.9 42.6-2 0.8-25.8-31.7-27.9-32.2-2.1-0.5-38.5 16.6-39.8 15-1.4-1.7 22.1-34.4 21.9-36.5-0.1-2.1-27.6-31.5-26.5-33.3 1.1-1.8 39.5 10.4 41.5 9.6 1.9-0.7 21.3-36 23.4-35.5 2.1 0.5 2.3 40.8 3.6 42.4 1.4 1.7 40.9 9.2 41.1 11.4z"/>
		<path id="path3765" class="s2" d="m574.8 973.8c-0.3 2.1-40.2 7.1-41.7 8.6-1.4 1.6-4.2 41.8-6.3 42.1-2.1 0.4-19.2-36-21.2-36.9-1.9-0.9-40.9 8.8-42 6.9-1-1.8 28.4-29.4 28.7-31.5 0.2-2.1-21.1-36.2-19.6-37.8 1.4-1.5 36.7 17.9 38.8 17.5 2.1-0.4 27.9-31.2 29.9-30.3 1.9 0.9-5.7 40.4-4.7 42.3 1 1.9 38.4 17 38.1 19.1z"/>
		<path id="path3769" class="s3" d="m211.9 1038.6c-1.4-0.1-7.7-25.6-8.8-26.5-1.2-0.8-27.5 0.5-27.9-0.8-0.4-1.4 22-15.3 22.4-16.6 0.4-1.4-8.9-26-7.8-26.8 1.2-0.8 21.3 16.2 22.7 16.2 1.4 0 21.9-16.5 23.1-15.7 1.1 0.8-8.8 25.3-8.4 26.6 0.4 1.3 22.5 15.8 22 17.1-0.4 1.3-26.7-0.6-27.8 0.2-1.2 0.8-8.1 26.3-9.5 26.3z"/>
		<path id="path3771" class="s3" d="m513.1 872.2c-1.3-0.6 3.8-26.5 3.1-27.7-0.6-1.2-25-11.2-24.8-12.6 0.2-1.4 26.3-4.5 27.3-5.5 0.9-1 2.9-27.3 4.3-27.6 1.3-0.2 12.4 23.7 13.7 24.3 1.2 0.6 26.8-5.6 27.5-4.4 0.6 1.2-18.7 19.1-18.8 20.5-0.2 1.4 13.6 23.8 12.7 24.8-1 1-24-11.8-25.4-11.5-1.4 0.2-18.4 20.3-19.6 19.7z"/>
		<path id="path3773" class="s3" d="m350.7 673.9c-1.3-0.6 3.8-26.5 3.1-27.7-0.6-1.2-25-11.2-24.8-12.6 0.2-1.4 26.3-4.6 27.3-5.6 0.9-1 2.9-27.3 4.3-27.5 1.3-0.3 12.4 23.7 13.7 24.3 1.2 0.6 26.8-5.7 27.5-4.5 0.6 1.3-18.7 19.2-18.8 20.6-0.2 1.4 13.6 23.8 12.7 24.8-1 1-24-11.8-25.4-11.6-1.4 0.3-18.4 20.4-19.6 19.8z"/>
		<path id="path3777" class="s5" d="m334.1 301.1c-83.2 0-150.5-67.3-150.5-150.6 0-83.2 67.3-150.5 150.5-150.5 83.2 0 150.4 67.3 150.4 150.5 0 83.3-67.2 150.6-150.4 150.6z"/>
	</g>
</svg>